<svg xmlns="http://www.w3.org/2000/svg" version="1.1" xmlns:xlink="http://www.w3.org/1999/xlink" xmlns:svgjs="http://svgjs.dev/svgjs" width="2000" height="1500" viewBox="0 0 2000 1500"><rect width="2000" height="1500" fill="#ed1703"></rect><g transform="matrix(0.75,0,0,0.75,249.090909090909,282.7536437246963)"><svg viewBox="0 0 396 247" data-background-color="#ed1703" preserveAspectRatio="xMidYMid meet" height="1247" width="2000" xmlns="http://www.w3.org/2000/svg" xmlns:xlink="http://www.w3.org/1999/xlink"><g id="tight-bounds" transform="matrix(1,0,0,1,0.2400000000000091,-0.09999999999999432)"><svg viewBox="0 0 395.52 247.2" height="247.2" width="395.52"><g><svg></svg></g><g><svg viewBox="0 0 395.52 247.2" height="247.2" width="395.52"><g transform="matrix(1,0,0,1,133.596768,47.215199999999996)"><svg viewBox="0 0 128.326464 152.7696" height="152.7696" width="128.326464"><g><svg viewBox="0 0 128.326464 152.7696" height="152.7696" width="128.326464"><g><svg viewBox="0 0 128.326464 152.7696" height="152.7696" width="128.326464"><g><svg viewBox="0 0 128.326464 152.7696" height="152.7696" width="128.326464"><g id="textblocktransform"><svg viewBox="0 0 128.326464 152.7696" height="152.7696" width="128.326464" id="textblock"><g><svg viewBox="0 0 128.326464 152.7696" height="152.7696" width="128.326464"><g transform="matrix(1,0,0,1,0,0)"><svg width="128.326464" viewBox="1.95 -29.3 24.61 29.3" height="152.7696" data-palette-color="#ffffff"><path d="M24.71-22.66L24.71-22.66Q24.71-26.37 21.19-28.17L21.19-28.17Q18.9-29.3 15.67-29.3L15.67-29.3 1.95-29.3 1.95-28.03 5.86-28.03 5.86-1.27 1.95-1.27 1.95 0 15.82 0Q22.12 0 25.05-4L25.05-4Q26.56-6.1 26.56-8.59L26.56-8.59Q26.56-12.5 23.1-14.65L23.1-14.65Q21.48-15.58 19.38-15.97L19.38-15.97Q22.9-17.29 24.22-20.41L24.22-20.41Q24.71-21.58 24.71-22.66ZM10.06-28.03L14.5-28.03Q19.53-28.03 20.21-23.58L20.21-23.58Q20.31-22.95 20.31-22.27L20.31-22.27Q20.31-19.09 17.82-17.48L17.82-17.48Q16.36-16.55 14.4-16.55L14.4-16.55 10.06-16.55 10.06-28.03ZM10.06-15.23L15.33-15.23Q19.78-15.23 21.29-11.47L21.29-11.47Q21.88-10.11 21.88-8.5L21.88-8.5Q21.88-4.74 19.43-2.64L19.43-2.64Q17.82-1.27 15.58-1.27L15.58-1.27 10.06-1.27 10.06-15.23Z" opacity="1" transform="matrix(1,0,0,1,0,0)" fill="#ffffff" class="wordmark-text-0" data-fill-palette-color="primary" id="text-0"></path></svg></g></svg></g></svg></g></svg></g></svg></g></svg></g></svg></g><g><path d="M187.763 0c30.402 0 58.24 10.976 79.768 29.183l-11.147 0c-19.26-14.022-42.974-22.294-68.621-22.295-25.647 0-49.361 8.272-68.621 22.295l-11.147 0c21.528-18.206 49.366-29.183 79.768-29.183zM187.763 247.2c-30.402 0-58.24-10.976-79.768-29.183h11.147c19.26 14.022 42.974 22.294 68.621 22.295 25.647 0 49.361-8.272 68.621-22.295h11.147c-21.528 18.206-49.366 29.183-79.768 29.183z" fill="#ffffff" stroke="transparent" data-fill-palette-color="tertiary"></path></g></svg></g><defs></defs></svg><rect width="395.52" height="247.2" fill="none" stroke="none" visibility="hidden"></rect></g></svg></g></svg>